<?xml version="1.0" encoding="UTF-8"?>
<svg width="576px" height="448px" viewBox="0 0 576 448" version="1.1" xmlns="http://www.w3.org/2000/svg" xmlns:xlink="http://www.w3.org/1999/xlink">
    <!-- Generator: Sketch 43.2 (39069) - http://www.bohemiancoding.com/sketch -->
    <title>shopping-basket</title>
    <desc>Created with Sketch.</desc>
    <defs></defs>
    <g id="Page-1" stroke="none" stroke-width="1" fill="none" fill-rule="evenodd">
        <g id="Artboard" transform="translate(-1138.000000, -498.000000)" fill-rule="nonzero" fill="#FFFFFF">
            <g id="shopping-basket" transform="translate(1138.000000, 497.000000)">
                <path d="M576,185 L576,201 C576,214.255 565.255,225 552,225 L544,225 L517.887,407.788 C514.509,431.435 494.257,449 470.37,449 L105.63,449 C81.743,449 61.491,431.435 58.112,407.788 L32,225 L24,225 C10.745,225 0,214.255 0,201 L0,185 C0,171.745 10.745,161 24,161 L91.341,161 L198.121,14.179 C208.516,-0.113 228.528,-3.274 242.822,7.121 C257.115,17.516 260.275,37.529 249.88,51.822 L170.477,161 L405.523,161 L326.12,51.821 C315.725,37.529 318.886,17.515 333.179,7.12 C347.47,-3.275 367.485,-0.115 377.88,14.178 L484.659,161 L552,161 C565.255,161 576,171.745 576,185 Z M312,361 L312,249 C312,235.745 301.255,225 288,225 C274.745,225 264,235.745 264,249 L264,361 C264,374.255 274.745,385 288,385 C301.255,385 312,374.255 312,361 Z M424,361 L424,249 C424,235.745 413.255,225 400,225 C386.745,225 376,235.745 376,249 L376,361 C376,374.255 386.745,385 400,385 C413.255,385 424,374.255 424,361 Z M200,361 L200,249 C200,235.745 189.255,225 176,225 C162.745,225 152,235.745 152,249 L152,361 C152,374.255 162.745,385 176,385 C189.255,385 200,374.255 200,361 Z" id="Shape"></path>
            </g>
        </g>
    </g>
</svg>